<svg width="136" height="17" viewBox="0 0 136 17" fill="none" xmlns="http://www.w3.org/2000/svg">
<g id="kenziemovie">
<path d="M7.161 16.821L3.591 11.907V16.821H0V1.281H3.591V9.87L7.14 5.103H11.571L6.699 10.983L11.613 16.821H7.161Z" fill="white"/>
<path d="M24.0274 10.773C24.0274 11.109 24.0064 11.459 23.9644 11.823H15.8374C15.8934 12.551 16.1244 13.111 16.5304 13.503C16.9504 13.881 17.4614 14.07 18.0634 14.07C18.9594 14.07 19.5824 13.692 19.9324 12.936H23.7544C23.5584 13.706 23.2014 14.399 22.6834 15.015C22.1794 15.631 21.5424 16.114 20.7724 16.464C20.0024 16.814 19.1414 16.989 18.1894 16.989C17.0414 16.989 16.0194 16.744 15.1234 16.254C14.2274 15.764 13.5274 15.064 13.0234 14.154C12.5194 13.244 12.2674 12.18 12.2674 10.962C12.2674 9.744 12.5124 8.68 13.0024 7.77C13.5064 6.86 14.2064 6.16 15.1024 5.67C15.9984 5.18 17.0274 4.935 18.1894 4.935C19.3234 4.935 20.3314 5.173 21.2134 5.649C22.0954 6.125 22.7814 6.804 23.2714 7.686C23.7754 8.568 24.0274 9.597 24.0274 10.773ZM20.3524 9.828C20.3524 9.212 20.1424 8.722 19.7224 8.358C19.3024 7.994 18.7774 7.812 18.1474 7.812C17.5454 7.812 17.0344 7.987 16.6144 8.337C16.2084 8.687 15.9564 9.184 15.8584 9.828H20.3524Z" fill="white"/>
<path d="M33.0619 4.977C34.4339 4.977 35.5259 5.425 36.3379 6.321C37.1639 7.203 37.5769 8.421 37.5769 9.975V16.821H34.0069V10.458C34.0069 9.674 33.8039 9.065 33.3979 8.631C32.9919 8.197 32.4459 7.98 31.7599 7.98C31.0739 7.98 30.5279 8.197 30.1219 8.631C29.7159 9.065 29.5129 9.674 29.5129 10.458V16.821H25.9219V5.103H29.5129V6.657C29.8769 6.139 30.3669 5.733 30.9829 5.439C31.5989 5.131 32.2919 4.977 33.0619 4.977Z" fill="white"/>
<path d="M43.4323 13.86H48.5143V16.821H39.4213V13.965L44.2933 8.064H39.4633V5.103H48.4093V7.959L43.4323 13.86Z" fill="white"/>
<path d="M52.2962 3.885C51.6662 3.885 51.1482 3.703 50.7422 3.339C50.3502 2.961 50.1542 2.499 50.1542 1.953C50.1542 1.393 50.3502 0.931001 50.7422 0.567C51.1482 0.189 51.6662 0 52.2962 0C52.9122 0 53.4162 0.189 53.8082 0.567C54.2142 0.931001 54.4172 1.393 54.4172 1.953C54.4172 2.499 54.2142 2.961 53.8082 3.339C53.4162 3.703 52.9122 3.885 52.2962 3.885ZM54.0812 5.103V16.821H50.4902V5.103H54.0812Z" fill="white"/>
<path d="M67.7296 10.773C67.7296 11.109 67.7086 11.459 67.6666 11.823H59.5396C59.5956 12.551 59.8266 13.111 60.2326 13.503C60.6526 13.881 61.1636 14.07 61.7656 14.07C62.6616 14.07 63.2846 13.692 63.6346 12.936H67.4566C67.2606 13.706 66.9036 14.399 66.3856 15.015C65.8816 15.631 65.2446 16.114 64.4746 16.464C63.7046 16.814 62.8436 16.989 61.8916 16.989C60.7436 16.989 59.7216 16.744 58.8256 16.254C57.9296 15.764 57.2296 15.064 56.7256 14.154C56.2216 13.244 55.9696 12.18 55.9696 10.962C55.9696 9.744 56.2146 8.68 56.7046 7.77C57.2086 6.86 57.9086 6.16 58.8046 5.67C59.7006 5.18 60.7296 4.935 61.8916 4.935C63.0256 4.935 64.0336 5.173 64.9156 5.649C65.7976 6.125 66.4836 6.804 66.9736 7.686C67.4776 8.568 67.7296 9.597 67.7296 10.773ZM64.0546 9.828C64.0546 9.212 63.8446 8.722 63.4246 8.358C63.0046 7.994 62.4796 7.812 61.8496 7.812C61.2476 7.812 60.7366 7.987 60.3166 8.337C59.9106 8.687 59.6586 9.184 59.5606 9.828H64.0546Z" fill="white"/>
<path d="M84.576 4.977C86.032 4.977 87.187 5.418 88.041 6.3C88.909 7.182 89.343 8.407 89.343 9.975V16.821H85.773V10.458C85.773 9.702 85.57 9.121 85.164 8.715C84.772 8.295 84.226 8.085 83.526 8.085C82.826 8.085 82.273 8.295 81.867 8.715C81.475 9.121 81.279 9.702 81.279 10.458V16.821H77.709V10.458C77.709 9.702 77.506 9.121 77.1 8.715C76.708 8.295 76.162 8.085 75.462 8.085C74.762 8.085 74.209 8.295 73.803 8.715C73.411 9.121 73.215 9.702 73.215 10.458V16.821H69.624V5.103H73.215V6.573C73.579 6.083 74.055 5.698 74.643 5.418C75.231 5.124 75.896 4.977 76.638 4.977C77.52 4.977 78.304 5.166 78.99 5.544C79.69 5.922 80.236 6.461 80.628 7.161C81.034 6.517 81.587 5.992 82.287 5.586C82.987 5.18 83.75 4.977 84.576 4.977Z" fill="white"/>
<path d="M97.1885 16.989C96.0405 16.989 95.0045 16.744 94.0805 16.254C93.1705 15.764 92.4495 15.064 91.9175 14.154C91.3995 13.244 91.1405 12.18 91.1405 10.962C91.1405 9.758 91.4065 8.701 91.9385 7.791C92.4705 6.867 93.1985 6.16 94.1225 5.67C95.0465 5.18 96.0825 4.935 97.2305 4.935C98.3785 4.935 99.4145 5.18 100.338 5.67C101.262 6.16 101.99 6.867 102.522 7.791C103.054 8.701 103.32 9.758 103.32 10.962C103.32 12.166 103.047 13.23 102.501 14.154C101.969 15.064 101.234 15.764 100.296 16.254C99.3725 16.744 98.3365 16.989 97.1885 16.989ZM97.1885 13.881C97.8745 13.881 98.4555 13.629 98.9315 13.125C99.4215 12.621 99.6665 11.9 99.6665 10.962C99.6665 10.024 99.4285 9.303 98.9525 8.799C98.4905 8.295 97.9165 8.043 97.2305 8.043C96.5305 8.043 95.9495 8.295 95.4875 8.799C95.0255 9.289 94.7945 10.01 94.7945 10.962C94.7945 11.9 95.0185 12.621 95.4665 13.125C95.9285 13.629 96.5025 13.881 97.1885 13.881Z" fill="white"/>
<path d="M110.497 13.461L113.038 5.103H116.86L112.702 16.821H108.271L104.113 5.103H107.956L110.497 13.461Z" fill="white"/>
<path d="M120.177 3.885C119.547 3.885 119.029 3.703 118.623 3.339C118.231 2.961 118.035 2.499 118.035 1.953C118.035 1.393 118.231 0.931001 118.623 0.567C119.029 0.189 119.547 0 120.177 0C120.793 0 121.297 0.189 121.689 0.567C122.095 0.931001 122.298 1.393 122.298 1.953C122.298 2.499 122.095 2.961 121.689 3.339C121.297 3.703 120.793 3.885 120.177 3.885ZM121.962 5.103V16.821H118.371V5.103H121.962Z" fill="white"/>
<path d="M135.61 10.773C135.61 11.109 135.589 11.459 135.547 11.823H127.42C127.476 12.551 127.707 13.111 128.113 13.503C128.533 13.881 129.044 14.07 129.646 14.07C130.542 14.07 131.165 13.692 131.515 12.936H135.337C135.141 13.706 134.784 14.399 134.266 15.015C133.762 15.631 133.125 16.114 132.355 16.464C131.585 16.814 130.724 16.989 129.772 16.989C128.624 16.989 127.602 16.744 126.706 16.254C125.81 15.764 125.11 15.064 124.606 14.154C124.102 13.244 123.85 12.18 123.85 10.962C123.85 9.744 124.095 8.68 124.585 7.77C125.089 6.86 125.789 6.16 126.685 5.67C127.581 5.18 128.61 4.935 129.772 4.935C130.906 4.935 131.914 5.173 132.796 5.649C133.678 6.125 134.364 6.804 134.854 7.686C135.358 8.568 135.61 9.597 135.61 10.773ZM131.935 9.828C131.935 9.212 131.725 8.722 131.305 8.358C130.885 7.994 130.36 7.812 129.73 7.812C129.128 7.812 128.617 7.987 128.197 8.337C127.791 8.687 127.539 9.184 127.441 9.828H131.935Z" fill="white"/>
</g>
</svg>
